<?xml version="1.0" encoding="utf-8"?>
<svg viewBox="0 0 312.466 312.466" fill="#D2D904" xmlns="http://www.w3.org/2000/svg">
  <g transform="matrix(0.9999999999999999, 0, 0, 0.9999999999999999, -3.552713678800501e-15, -3.552713678800501e-15)">
    <g>
      <polygon points="194.229,91.162 204.627,103.513 189.356,106.437 &#9;&#9;"/>
      <polygon points="219.813,96.517 201.924,75.261 262.135,15.05 279.013,29.764 &#9;&#9;"/>
      <polygon points="273.567,3.623 277.189,0 292.623,14.413 289.704,17.696 &#9;&#9;"/>
      <path d="M103.054,152.958l-30.967-11.499l5.578-18.255l30.113,10.289C106.238,140.254,104.661,146.91,103.054,152.958z"/>
      <polygon points="67.366,156.908 98.733,168.559 94.729,182.891 63.035,171.095 &#9;&#9;"/>
      <path d="M117.682,160.657c1.596-5.667,3.129-11.946,4.611-18.368c1.683,6.407,3.417,12.69,5.134,18.451l12.804,43.546h-34.757 L117.682,160.657z"/>
      <path d="M113.794,107.54c-0.805,3.215-1.616,6.622-2.424,10.134l-28.988-9.903l4.024-13.173l30.431,8.444 C115.369,104.123,114.256,105.668,113.794,107.54z"/>
      <polygon points="26.917,289.286 30.841,276.444 68.513,290.198 64.61,304.268 &#9;&#9;"/>
      <polygon points="72.838,274.603 35.56,261.001 39.99,246.513 76.812,260.266 &#9;&#9;"/>
      <polygon points="22.192,304.761 41.5,312.44 19.843,312.44 &#9;&#9;"/>
      <path d="M184.874,312.44l-17.858-59.46c-1.019-3.412-4.158-5.738-7.73-5.738H88.009l-43.305-16.174l2.843-9.307l40.812,16.415 c0.99,0.394,2.005,0.571,3.01,0.571c3.191,0,6.213-1.904,7.483-5.044c1.665-4.142-0.338-8.84-4.472-10.488l-42.095-16.919 l6.031-19.742l32.058,11.948l-3.272,11.694c-0.683,2.425-0.184,5.045,1.338,7.05c1.525,2.011,3.908,3.192,6.423,3.192h56.146 c2.548,0,4.934-1.197,6.457-3.239c1.517-2.025,1.989-4.661,1.271-7.097l-15.845-53.925c-3.769-12.574-7.569-27.912-10.929-41.449 l-1.774-7.155c-0.581-2.368-2.236-4.179-4.325-5.2c1.406-1.031,2.509-2.514,3.015-4.333c1.197-4.294-1.323-8.735-5.616-9.927 l-32.14-8.924l1.402-4.59h63.457l13.837,44.593c0,0.005,0,0.014,0,0.019l59.928,193.253L184.874,312.44L184.874,312.44z"/>
    </g>
  </g>
</svg>