<?xml version="2.0" encoding="utf-8"?>
<svg
xmlns:mapsvg="http://mapsvg.com"
xmlns:dc="http://purl.org/dc/elements/1.1/"
xmlns:cc="http://creativecommons.org/ns#"
xmlns:rdf="http://www.w3.org/1999/02/22-rdf-syntax-ns#"
xmlns:svg="http://www.w3.org/2000/svg"
xmlns="http://www.w3.org/2000/svg"
mapsvg:geoViewBox="-81.390559 -0.036136 -68.672457 -18.388935"
version="1.1"
id="peru-map">

<path
    v-on:click="clickRegion"
    id="PE-AMA"
    title="Amazonas"
    d="m 154.144,293.955 -1.29,0.282 -2.86,1.045 -2.605,0.595 0,-1.787 -0.671,-4.469 -1.117,-1.564 -1.327,-1.327 -0.007,-0.379 -5.243,-10.642 -1.747,-2.655 -4.093,-2.46 -1.497,-0.427 -1.415,-0.785 -0.746,-1.099 -0.426,-0.966 -0.563,-1.467 -0.944,-2.302 -2.318,-3.88 -4.102,-3.056 -0.693,-0.422 0.156,-2.964 -2.625,-2.251 -2.251,-1.875 0,-3.751 1.5,-3.375 1.126,-3.001 0.375,-3 1.5,-3.751 1.875,-2.626 0,-3.75 -1.875,-1.126 -1.639,-0.468 -0.089,-0.55 -2.023,-0.107 -3,-3 0,-3.751 0,-3.751 1.5,-3.001 1.5,-2.625 1.244,-4.56 -0.393,-0.599 -0.368,-0.81 -0.166,-1.247 -1.434,-4.869 -0.99,-2.337 1.084,-0.44 0.718,-0.833 0.705,-3.456 -0.109,-2.38 -0.738,-2.233 -0.101,-1.057 0.018,-1.411 0.538,-0.273 0.766,-0.944 3.326,-7.777 0.237,-0.956 0.107,-1.11 0.005,-1.565 0.078,-1.34 0.545,-1.983 0.391,-0.815 2.775,-3.412 1.95,-1.982 0.291,-0.396 0.628,-1.293 0.462,-1.475 0.689,-3.293 0.231,-2.594 -0.154,-1.407 0.118,-0.909 0.67,-2.619 0.261,-0.921 0.711,-0.755 1.198,-0.401 0.937,0.094 0.77,0.626 0.362,1.15 -0.125,2.767 0.38,0.124 2.798,-2.024 0.463,-0.861 -0.454,-1.649 -0.951,-0.879 -0.523,-1.354 0.653,-1.114 1.049,-0.856 1.471,-0.85 1.067,-0.772 2.099,-2.578 1.399,-2.509 4.656,-4.935 2.808,-2.299 2.107,-0.75 1.563,6.824 0.178,4.282 0.106,1.34 0.422,1.303 1.665,2.702 1.435,2.885 0.344,1.091 1.82,8.172 -0.243,1.8 -0.119,1.688 0.095,1.062 0.261,0.909 0.581,1.157 1.624,2.089 0.475,0.708 0.356,0.791 0.213,0.957 0.379,6.252 -0.415,0.856 -0.628,7.44 -0.065,2.232 0.278,0.945 0.238,1.418 -0.356,2.421 -0.297,1.241 -2.733,5.754 -1.043,1.648 -0.801,0.644 -0.889,0.945 -0.77,1.005 -0.772,1.182 -0.747,1.831 -0.592,2.069 -0.237,2.47 0.082,1.3 0.343,1.987 -2.753,3.097 0,3 4.126,3.376 0.29,0.145 0.438,2.384 0.415,1.242 2.572,5.548 0.427,0.556 -0.534,0.26 -1.066,0.887 -0.961,1.272 -0.498,0.858 -0.237,1.243 -0.385,8.959 0.586,1.538 0.629,1.362 4.434,8.466 1.767,1.977 1.128,0.488 1.19,0.3 1.935,0.394 1.872,0.436 1.661,0.41 3.826,1.347 2.093,2.191 1.06,1.721 0.524,1.232 0.814,1.979 0.688,2.778 -0.919,1.743 -1.548,1.268 -1.577,0.978 -1.008,0.758 -0.83,1.008 -0.682,1.357 -0.355,1.21 -0.421,1.677 -0.451,0.972 -0.374,0.214 0,1.854 -2.25,2.625 -2.251,1.125 -3,-2.25 -4.501,-0.375 -2.251,0.375 -2.269,1.92 -0.558,4.255 -0.688,1.477 -0.723,2.065 -0.071,1.59 z" />
<path
    id="PE-LOR"
    title="Loreto"
    d="m 266.879,0.359 4.935,3.295 2.598,2.014 0.96,1.202 3.32,1.425 0.817,-0.306 1.216,-0.831 0.884,-0.229 0.835,0.323 0.991,1.172 0.664,1.078 0.533,1.219 0.179,0.93 0.047,0.931 0.302,1.189 3.237,1.903 1.085,-0.972 2.158,1.449 6.961,5.324 0.758,1.048 0.249,0.403 0.522,2.353 0.818,3.11 0.972,3.192 1.103,1.19 1.814,1.86 -0.699,1.921 -0.795,1.331 1.174,2.391 0.623,1.113 1.078,0.931 5.876,1.608 8.953,5.761 1.155,2.396 3.788,1.043 1.673,-0.447 2.537,0.223 4.18,3.853 0.349,2.603 0.203,1.332 0.971,1.084 1.838,2.498 1.273,2.454 -1.273,1.116 -0.427,0.754 -0.877,3.983 0.723,0.789 3.166,2.11 5.099,2.413 2.478,-1.188 1.787,-1.659 2.743,1.812 1.807,3.159 1.376,9.416 -0.836,2.322 -1.002,1.344 -1.301,0.607 0.703,3.501 0.45,0.772 1.316,1.037 3.024,1.662 1.198,-0.377 1.726,-0.07 1.369,2.274 0.877,2.241 2.869,-0.696 5.609,-2.122 3.978,-1.391 5.947,1.45 5.252,1.768 1.21,0.354 3.07,0.318 6.724,-3.866 3.747,-1.627 2.17,0.405 1.775,-0.051 0.785,-2.441 2.686,-3.795 3.694,-3.042 1.228,-0.477 0.426,0.79 -0.041,1.255 0.42,1.226 4.168,0.495 2.414,-0.089 4.606,1.981 2.158,2.788 7.411,0.577 3.711,-2.062 5.324,-1.427 5.013,-2.248 6.466,4.241 3.962,0 3.834,3.355 4.313,1.917 2.56,2.275 0.343,-0.21 0.86,-0.245 1.719,0.377 3.268,2.931 0.425,1.659 7.599,-1.515 0,2.396 -1.565,5.322 -14.715,22.893 -1.494,2.325 -5.063,7.822 -2.632,4.06 -1.909,2.915 -2.217,3.482 4.971,2.115 3.403,1.264 1.159,0.003 0.913,-0.395 2.371,-1.44 0.742,-0.579 1.891,-0.625 0.877,0.094 0.794,0.39 3.783,3.063 2.244,2.813 0.821,1.591 0.433,1.316 0.35,1.104 0.35,0.809 0.556,0.915 3.51,2.899 0.843,0.567 1.387,0.939 1.363,1.423 -0.01,1.166 0.283,1.09 -0.438,0.879 -0.813,1.247 -1.595,1.082 -7.72,-0.225 -2.477,-1.755 -1.944,-1.76 -0.315,-0.838 0.445,-1.329 -0.059,-1.057 -0.872,-1.465 -4.663,-0.327 -1.532,0.965 -1.483,1.063 -3.591,0.673 -1.774,-1.488 -5.837,-0.546 -2.043,0.972 -0.936,0.699 -1.566,2.725 -0.155,1.234 -3.573,4.342 -1.573,-0.006 -2.537,2.255 -4.793,0 -4.313,2.396 -6.23,0.958 -6.23,2.397 -6.23,-0.48 -6.231,0 -3.834,3.355 -4.313,3.834 -4.792,3.355 -6.231,2.396 -6.71,4.314 -6.709,7.188 -6.23,2.397 -4.793,7.668 -1.438,7.189 -1.437,9.105 -5.751,4.793 -5.273,8.626 4.314,10.544 1.917,6.709 -6.231,6.231 -6.709,3.354 -10.544,4.793 -4.313,2.396 -1.917,10.065 -2.092,0.597 0.041,0.373 0.835,0.623 2.372,3.669 0.605,3.684 -1.381,1.057 -8.236,1.078 0.026,3.585 -1.362,3.608 -1.055,0.063 -0.406,-0.473 -0.789,-0.6 -0.125,-0.068 -0.085,-1.36 -2.905,-2.235 -2.904,-2.458 -4.246,-0.447 -3.128,-0.223 -1.563,-1.787 -2.235,-0.224 -1.564,0.447 -0.893,1.564 -0.061,0.283 -0.117,-0.096 -0.118,-0.078 -1.715,2.573 -1.564,1.563 -0.825,1.443 0.363,1.929 0.296,1.776 0.652,8.469 -0.154,3.769 -0.213,1.1 -0.759,1.124 -1.34,0.939 -0.752,0.422 -1.066,2.489 -2.458,1.341 -5.586,0.447 -4.469,-0.447 -0.43,-0.503 -0.522,0.155 -1.282,-0.769 -4.916,-0.447 -2.233,2.681 -2.012,1.788 -1.09,1.211 -1.428,-0.16 -2.763,-0.476 -2.67,2.011 -0.986,1.882 0,3.798 -0.223,2.681 0,2.595 -1.478,1.149 -2.294,0.574 -0.127,-0.108 -1.008,-0.952 -0.984,-0.882 -1.364,-0.827 -1.862,0 -5.632,4.9 -2.609,2.776 -0.782,1 -0.759,0.62 -1.567,0.684 -0.983,-2.592 -0.361,-2.076 0.137,-0.472 0.355,-1.238 0.19,-1.834 0.391,-2.655 0.439,-1.001 0.141,-0.19 -1.739,-2.735 0.75,-5.626 1.875,-3.375 2.398,-2.227 -0.485,-0.9 -1.001,-2.124 -2.948,0 -0.73,-2.556 -2.646,-3.461 -1.222,-4.071 -1.018,-6.921 -3.46,-3.461 -1.221,-3.664 0,-3.256 0.157,-2.684 2.801,-0.933 0.118,-0.714 0.241,-0.954 4.14,-2.957 0,-3.751 -1.125,-9.002 2.068,-2.067 0.795,-0.249 1.755,-0.102 1.246,0.285 1.255,0.356 1.175,0.474 1.138,0.831 1.127,0.854 0.452,0.566 4.742,-0.198 3.751,-0.75 1.605,-0.642 0.05,-0.079 0.392,-1.198 0.71,-3.334 -0.118,-1.683 0.048,-1.447 0.189,-2.537 0.261,-3.035 0.32,-2.098 0.403,-2.039 0.083,-1.126 -0.148,-1.292 -0.414,-0.938 1.87,-2.181 0.375,-3.751 -2.251,-3 -3.75,-1.876 -5.251,1.125 -2.797,2.131 -3.855,-0.811 -1.244,-0.166 -3.155,0.022 -1.912,0.152 -2.415,1.673 -4.126,2.626 -3.001,-1.501 -3,-3.75 -4.126,-3.751 -3.857,-0.386 -0.834,0.671 -1.514,1.047 -1.503,0.681 -2.373,0.358 -2.109,-0.869 -2.128,-1.487 -0.841,-1.272 -0.961,-1.918 -0.338,-1.57 -0.889,-2.534 -0.652,-1.183 -0.688,-1.232 -4.34,-2.983 -2.146,-0.68 -1.186,0.118 -1.66,0.065 -2.075,-0.059 -3.735,-0.272 -1.198,-0.297 -1.244,-0.355 -1.127,-0.58 -1.766,-1.952 -0.819,-0.947 -0.901,-1.414 -1.292,-1.036 -2.087,-0.976 -2.668,-0.846 -2.502,-0.805 -1.34,-0.816 -2.431,-1.804 -0.415,-0.799 -0.427,-0.556 -2.572,-5.548 -0.415,-1.242 -0.438,-2.384 -0.29,-0.145 -4.126,-3.376 0,-3 2.753,-3.097 -0.342,-1.987 -0.083,-1.3 0.237,-2.47 0.592,-2.069 0.747,-1.832 0.772,-1.181 0.77,-1.005 0.889,-0.945 0.801,-0.644 1.043,-1.648 2.733,-5.755 0.297,-1.24 0.356,-2.421 -0.238,-1.418 -0.278,-0.945 0.065,-2.232 0.628,-7.44 0.415,-0.856 -0.379,-6.252 -0.213,-0.957 -0.356,-0.791 -0.474,-0.708 -1.625,-2.089 -0.581,-1.157 -0.261,-0.909 -0.095,-1.062 0.119,-1.688 0.243,-1.8 -1.82,-8.172 -0.344,-1.091 -1.435,-2.885 -1.665,-2.702 -0.422,-1.303 -0.106,-1.34 -0.178,-4.282 -1.563,-6.824 0.674,-0.205 15.141,-5.178 9.202,-3.148 7.719,-2.653 5.929,-2.04 10.407,-3.588 10.959,-8.142 14.075,-10.574 4.126,-4.867 8.372,-9.946 2.632,-3.135 3.946,-4.737 1.67,-1.725 1.034,-0.668 0.441,-1.106 2.988,-11.534 0.937,-3.746 0.747,-2.886 0.522,-2.015 1.268,-4.888 1.079,1.189 0.741,0.719 1.245,0.506 4.849,-0.439 -1.985,-6.558 -1.257,-3.568 0.399,-3.153 0.265,-0.251 0.438,-0.18 0.766,-0.698 0.198,-2.909 -0.774,-1.608 -3.299,-2.476 -1.028,0.085 -1.091,-0.836 -1.021,-1.161 -0.9,-1.501 -0.605,-1.605 -0.45,-2.176 -0.238,-0.907 -0.7,-1.749 -3.844,-2.215 -2.276,-0.344 0.371,-2.777 4.131,0.439 1.672,1.14 2.341,0.871 3.214,-0.553 1.897,-0.702 0.83,-0.635 1.14,0.117 1.418,-1.124 0.395,-1.172 L 263.977,0 Z" />
<path
    id="PE-MDD"
    title="Madre de Dios"
    d="m 459.185,466.707 0.023,1.464 2.122,-1.645 2.359,-1.53 1.158,0.769 1.203,1.193 0.604,0.889 0.216,0.271 4.546,-0.378 5.429,-0.814 5.427,-0.815 3.332,-0.277 0.556,-0.352 1.304,-0.792 0.83,-0.372 1.025,-0.257 6.223,0.461 1.806,1.593 2.104,-0.129 0.96,-0.227 3.415,-0.132 0.794,0.012 -0.039,0.022 2.897,4.815 2.905,4.801 7.838,12.929 1.458,2.404 1.46,2.405 4.742,7.82 1.28,2.106 1.649,2.708 0.581,0.903 1.28,2.107 1.364,2.324 1.921,3.843 1.909,3.905 3.675,7.524 0.558,1.205 1.612,3.307 0.901,1.809 0.155,0.231 -2.976,3.631 -1.056,2.583 -2.015,3.866 -2.728,1.062 0.392,3.45 -0.815,3.529 -3.585,2.596 -3.281,2.088 -4.245,1.565 -3.575,1.787 -3.352,0.893 -4.468,1.789 -2.458,1.117 -2.458,2.68 -4.915,1.118 -4.785,0.407 -0.914,-0.446 -8.6,-1.525 -4.915,-2.682 -5.586,-2.458 -6.256,-0.669 -2.701,0.5 0.019,-0.277 -3.47,-0.694 -0.086,0.12 -2.922,0.127 -4.246,-1.34 -5.139,-0.447 -3.352,-1.341 -1.787,0.671 -0.577,1.877 -0.419,-0.071 -1.684,1.992 -1.789,1.564 -2.68,1.787 -2.011,-0.447 -0.671,-3.128 -1.34,-4.021 -0.117,-2.224 -0.468,-0.245 -0.532,-1.777 -2.458,-0.447 -4.021,-1.34 -3.576,-2.458 -2.234,-3.798 -2.681,-3.128 -2.01,0.223 -4.916,1.341 -3.576,0.224 -2.68,0.893 -0.097,-0.169 -1.69,0.169 -2.458,-1.787 -0.224,-2.682 -0.446,-4.021 -1.565,-1.564 -1.787,-2.457 -1.117,-1.789 3.128,-2.457 1.396,-1.28 -0.24,-0.184 -0.276,-0.073 1.131,-2.261 -3.352,-1.564 -1.341,-3.128 -2.457,-3.351 -4.022,-2.906 -3.574,-1.787 -0.894,-4.691 -1.382,-1.613 0.383,-1.746 -0.789,-1.334 -2.904,-3.351 1.34,-1.564 2.905,-3.129 2.01,-3.35 0.894,-5.14 0,-3.765 0.459,0.07 1.297,-1.111 1.832,-2.647 1.017,-3.664 0.611,-2.442 -1.628,-1.425 0.406,-2.036 2.159,-0.27 -0.013,-0.018 3.147,0.492 2.8,-0.361 0.207,0.176 1.636,0.265 1.126,0 1.198,0 2.964,-0.234 1.28,-0.21 0.212,-0.089 4.658,0.249 11.603,-0.407 1.832,-1.832 2.646,-2.443 0.815,-2.442 0.295,-3.839 0.244,-0.051 0.071,-2.014 1.425,-4.274 1.425,-1.832 2.85,-2.851 4.682,-1.831 5.089,-5.293 3.263,-3.121 0,-0.123 2.436,-1.03 6.653,-10.561 -0.03,4.457 0.012,5.063 -0.012,6.56 -0.035,11.645 -0.025,7.469 -0.046,5.674 z" />
<path
    id="PE-SAM"
    title="San Martín"
    d="m 183.56,239.993 2.075,0.059 1.66,-0.065 1.186,-0.118 2.146,0.68 4.34,2.983 0.688,1.232 0.652,1.183 0.889,2.534 0.338,1.569 0.961,1.919 0.841,1.272 2.128,1.487 2.109,0.869 2.373,-0.358 1.503,-0.681 1.514,-1.047 0.834,-0.671 3.857,0.386 4.126,3.751 3,3.75 3.001,1.501 4.126,-2.626 2.415,-1.673 1.912,-0.152 3.154,-0.022 1.245,0.166 3.855,0.811 2.797,-2.13 5.251,-1.126 3.75,1.876 2.251,3 -0.375,3.751 -1.87,2.181 0.414,0.938 0.148,1.292 -0.083,1.126 -0.403,2.038 -0.32,2.099 -0.261,3.035 -0.189,2.537 -0.048,1.447 0.118,1.683 -0.71,3.334 -0.392,1.198 -0.05,0.079 -1.605,0.642 -3.751,0.75 -4.743,0.198 -0.451,-0.566 -1.127,-0.854 -1.138,-0.831 -1.175,-0.474 -1.255,-0.356 -1.246,-0.285 -1.755,0.102 -0.795,0.249 -2.068,2.067 1.125,9.002 0,3.751 -4.14,2.957 -0.241,0.954 -0.118,0.714 -2.801,0.933 -0.157,2.684 0,3.256 1.221,3.664 3.46,3.461 1.018,6.921 1.222,4.071 2.646,3.461 0.73,2.556 2.948,0 1.001,2.124 0.485,0.9 -2.398,2.227 -1.875,3.375 -0.75,5.626 0.271,0.427 -4.022,1.449 -3.751,3.75 1.125,9.377 0.8,3.199 -0.734,1.185 -0.754,0.561 -2.158,-0.259 -1.11,-1.49 -2.757,-6.947 -1.637,-2.81 -1.36,-0.486 -1.946,-1.575 -0.076,0.506 -1.77,-0.885 -1.501,1.875 -1.5,3.001 -1.875,-1.126 -3.001,-1.125 -4.126,1.5 -3,-0.75 -3.751,0.75 -1.651,0.184 0.204,0.774 -1.701,0 -2.681,0 -1.705,0 -0.388,-0.991 -0.812,-0.529 -1.251,0.059 -0.519,0.227 -2.249,-3.474 1.876,-1.876 3.375,-1.125 4.126,-0.75 1.232,-0.308 0.02,-0.809 -0.3,-1.422 0.924,-0.462 -1.126,-4.126 -1.5,-2.25 -2.25,-3.376 -4.501,-0.75 -2.626,-1.875 -3.375,0.375 -4.501,1.875 -0.521,0 -0.508,-3.214 -0.67,-4.245 -1.564,-1.341 -1.638,-0.082 -0.083,-0.296 -1.854,-0.292 -0.447,-4.469 -0.223,-3.798 -0.67,-2.458 -0.267,-3.861 -0.426,-0.203 -1.404,-0.909 -0.671,-1.384 -1.137,-3.017 -0.179,-2.238 1.121,-2.215 0.244,-1.211 -0.653,-1.211 -3.795,-4.594 -1.761,-3.092 -0.645,-0.397 -0.665,-0.76 -0.521,-1.542 0.071,-1.59 0.723,-2.065 0.688,-1.477 0.558,-4.255 2.269,-1.92 2.251,-0.375 4.501,0.375 3,2.25 2.251,-1.125 2.25,-2.625 0,-1.854 0.374,-0.214 0.451,-0.972 0.421,-1.677 0.355,-1.21 0.682,-1.357 0.83,-1.008 1.008,-0.758 1.577,-0.978 1.548,-1.268 0.919,-1.743 -0.688,-2.778 -0.814,-1.979 -0.524,-1.232 -1.06,-1.721 -2.093,-2.191 -3.826,-1.347 -1.661,-0.41 -1.872,-0.436 -1.935,-0.394 -1.19,-0.3 -1.128,-0.488 -1.767,-1.977 -4.434,-8.466 -0.629,-1.362 -0.586,-1.538 0.385,-8.959 0.237,-1.243 0.498,-0.858 0.961,-1.272 1.066,-0.887 0.534,-0.26 0.415,0.799 2.431,1.804 1.34,0.816 2.502,0.805 2.668,0.846 2.087,0.976 1.292,1.036 0.901,1.414 0.819,0.947 1.766,1.952 1.127,0.581 1.244,0.354 1.198,0.297 z" />
<path
    id="PE-UCA"
    title="Ucayali"
    d="m 304.503,310.958 4.246,0.447 2.904,2.458 2.905,2.235 0.085,1.36 0.125,0.068 0.789,0.6 0.406,0.473 -0.641,0.069 -0.103,1.024 1.299,0.858 1.777,1.486 2.857,2.829 0.581,1.039 0.416,0.761 0.883,0.612 2.97,1.082 1.186,0.321 0.748,0.511 0.55,1.154 -0.189,1.834 -1.16,1.429 -2.204,-0.286 0.215,3.218 0.667,0.815 1.984,0.72 2.484,1.403 2.39,4.485 1.665,5.475 0.652,2.297 0.35,2.125 2.33,1.983 3.154,2.226 2.52,6.51 3.089,3.083 1.381,0.23 1.085,0.279 1.352,0.602 0.735,0.602 0.605,0.894 0.45,1.168 0.392,1.216 0.463,0.727 2.694,4.074 2.264,1.198 1.853,2.496 0.48,2.463 0.13,0.889 -0.046,1.014 -0.262,1.246 -0.474,1.026 -2.442,3.354 -4.091,3.963 -1.648,1.336 -1.062,0.883 -0.759,1.538 9.386,0.433 5.074,0.06 0.902,-0.025 4.731,0.061 5.253,1.421 8.738,1.612 1.305,0.388 2.994,1.744 2.093,5.322 -0.22,1.533 -0.498,1.634 0.383,1.231 1.443,0.801 1.975,1.103 0.663,1.347 0.597,2.252 -0.75,2.903 -0.748,2.069 1.791,0.096 3.913,0 1.791,-0.012 1.327,0 2.088,0 12.307,0 7.802,-0.012 3.89,-0.011 3.058,-0.366 4.951,-2.72 0.918,-1.819 0.87,-1.127 5.318,-1.849 1.221,-1.038 0.684,-1.413 3.73,-4.04 1.636,-1.052 2.751,-1.72 5.798,-4.934 2.336,-2.149 0.877,-0.317 -0.489,2.301 0.099,2.219 -0.582,4 -0.19,6.444 -0.74,0.748 -0.552,1.171 -0.143,3.007 0.012,2.268 -0.005,0.727 -6.653,10.561 -2.436,1.03 0,0.123 -3.263,3.121 -5.089,5.293 -4.682,1.831 -2.849,2.851 -1.426,1.832 -1.425,4.274 -0.071,2.014 -0.244,0.051 -0.295,3.839 -0.815,2.442 -2.646,2.443 -1.832,1.832 -11.603,0.407 -4.658,-0.249 -0.212,0.089 -1.28,0.21 -2.964,0.234 -1.198,0 -1.126,0 -1.636,-0.265 -0.207,-0.176 -2.8,0.361 -3.147,-0.492 0.013,0.018 -2.159,0.27 -0.406,2.036 1.628,1.425 -0.611,2.442 -1.017,3.664 -1.832,2.647 -1.297,1.111 -0.96,-0.146 -4.831,1.67 -2.372,2.151 -2.988,1.947 -1.678,0.487 -2.122,-0.559 -3,-1.31 -5.941,-0.673 -3.367,-1.815 -1.15,-0.949 -1.228,-2.901 -3.252,0.607 -0.916,0.751 -1.079,0.39 -1.387,0.409 -1.53,0.264 -3.082,0.48 -1.044,0.144 -6.717,0.796 -0.916,-0.373 -0.081,-0.054 0.364,-3.988 -0.895,-6.479 -1.867,-1.467 0.02,-0.107 -2.398,-0.661 -0.446,-3.798 -0.102,-2.947 -0.177,-0.28 -1.571,-2.045 -1.5,-1.193 -5.466,-1.662 -0.966,1.824 -0.89,1.775 -0.366,0.516 0.089,1.889 0,2.235 -0.223,4.021 -0.894,2.904 -2.01,1.118 -4.246,-0.894 -1.117,-3.351 -0.481,-2.729 -3.558,0.541 -1.533,0.437 -0.907,-0.26 -6.033,0.447 -4.468,0 -2.993,-1.069 -0.216,-0.635 -0.367,-1.896 -0.526,-2.765 1.699,-0.773 2.906,-2.506 0.533,-0.709 1.329,-1.546 2.976,-2.949 2.43,-1.258 1.304,-0.42 1.388,-0.504 0.202,-0.91 -0.137,-0.171 1.314,-0.658 0.223,-2.01 -0.671,-1.787 -1.117,-0.67 -2.011,-2.011 -1.117,-2.905 0.447,-2.905 1.118,-2.458 0.223,-3.351 -2.905,-0.446 -2.011,-1.565 -2.681,-3.574 -0.223,-3.799 -0.894,-3.352 -1.66,-0.76 -0.823,-2.288 -0.23,-0.614 0.255,-3.711 -1.34,-2.68 -0.894,-2.906 -2.234,-1.563 -1.787,-2.458 -0.224,-2.457 0.894,-2.458 1.787,-2.234 -0.893,-3.352 -1.788,-2.234 0,-4.469 -0.759,-3.252 0.68,-3.23 2.514,-4.889 2.04,-1.324 0.129,-1.106 -0.284,-1.442 -0.635,-1.457 -1.055,-1.028 -0.789,-0.411 -1.636,-0.202 -2.371,-0.167 -1.447,0.108 -0.96,0.238 -3.459,1.411 -0.432,0.297 -0.92,3.495 -1.564,4.246 -0.223,2.904 -1.118,2.011 -2.01,0 -1.118,-2.234 -3.128,0.446 -2.693,0.514 -0.34,0.478 -0.541,3.924 -2.235,2.681 0.224,4.469 -1.788,1.787 -2.234,2.011 -3.352,0.894 -2.416,-0.58 -4.162,2.171 -1.992,1.587 -0.811,0.425 -2.237,-0.699 -1.787,-2.457 -1.787,-3.128 -2.235,-4.022 -0.67,-1.341 -0.791,-0.692 -0.212,-1.19 -0.646,-1.431 -0.705,-0.763 -2.372,-5.295 -1.311,-4.901 0.675,-4.049 0.138,-3.463 1.518,-0.662 0.759,-0.62 0.782,-1 2.609,-2.776 5.632,-4.9 1.862,0 1.364,0.827 0.984,0.882 1.008,0.952 0.127,0.108 2.294,-0.574 1.478,-1.149 0,-2.595 0.223,-2.681 0,-3.798 0.986,-1.882 2.67,-2.011 2.763,0.476 1.428,0.16 1.09,-1.211 2.012,-1.788 2.233,-2.681 4.916,0.447 1.282,0.769 0.522,-0.155 0.43,0.503 4.469,0.447 5.586,-0.447 2.458,-1.341 1.066,-2.489 0.752,-0.422 1.34,-0.939 0.759,-1.124 0.213,-1.1 0.154,-3.769 -0.652,-8.469 -0.296,-1.776 -0.363,-1.929 0.825,-1.443 1.564,-1.563 1.715,-2.573 0.118,0.078 0.117,0.096 0.061,-0.283 0.893,-1.564 1.564,-0.447 2.235,0.224 1.563,1.787 z" />
</svg>